<svg width="15" height="14" viewBox="0 0 15 14" fill="none" xmlns="http://www.w3.org/2000/svg">
<path d="M14.137 12.194C14.018 12.446 13.864 12.684 13.661 12.908C13.318 13.286 12.94 13.559 12.513 13.734C12.093 13.909 11.638 14 11.148 14C10.434 14 9.67101 13.832 8.86601 13.489C8.06101 13.146 7.25601 12.684 6.45801 12.103C5.65301 11.515 4.89001 10.864 4.16201 10.143C3.44101 9.415 2.79001 8.652 2.20901 7.854C1.63501 7.056 1.17301 6.258 0.837008 5.467C0.501008 4.669 0.333008 3.906 0.333008 3.178C0.333008 2.702 0.417008 2.247 0.585008 1.827C0.753008 1.4 1.01901 1.008 1.39001 0.658C1.83801 0.217 2.32801 0 2.84601 0C3.04201 0 3.23801 0.042 3.41301 0.126C3.59501 0.21 3.75601 0.336 3.88201 0.518L5.50601 2.807C5.63201 2.982 5.72301 3.143 5.78601 3.297C5.84901 3.444 5.88401 3.591 5.88401 3.724C5.88401 3.892 5.83501 4.06 5.73701 4.221C5.64601 4.382 5.51301 4.55 5.34501 4.718L4.81301 5.271C4.73601 5.348 4.70101 5.439 4.70101 5.551C4.70101 5.607 4.70801 5.656 4.72201 5.712C4.74301 5.768 4.76401 5.81 4.77801 5.852C4.90401 6.083 5.12101 6.384 5.42901 6.748C5.74401 7.112 6.08001 7.483 6.44401 7.854C6.82201 8.225 7.18601 8.568 7.55701 8.883C7.92101 9.191 8.22201 9.401 8.46001 9.527C8.49501 9.541 8.53701 9.562 8.58601 9.583C8.64201 9.604 8.69801 9.611 8.76101 9.611C8.88001 9.611 8.97101 9.569 9.04801 9.492L9.58001 8.967C9.75501 8.792 9.92301 8.659 10.084 8.575C10.245 8.477 10.406 8.428 10.581 8.428C10.714 8.428 10.854 8.456 11.008 8.519C11.162 8.582 11.323 8.673 11.498 8.792L13.815 10.437C13.997 10.563 14.123 10.71 14.2 10.885C14.27 11.06 14.312 11.235 14.312 11.431C14.312 11.683 14.256 11.942 14.137 12.194Z" fill="#4E4E4E"/>
</svg>
