<svg width="40" height="40" viewBox="0 0 40 40" fill="none" xmlns="http://www.w3.org/2000/svg">
<path d="M29.5208 4H11.8125C7.49778 4 4 7.49778 4 11.8125V29.5208C4 33.8356 7.49778 37.3333 11.8125 37.3333H29.5208C33.8356 37.3333 37.3333 33.8356 37.3333 29.5208V11.8125C37.3333 7.49778 33.8356 4 29.5208 4Z" fill="url(#paint0_radial_55_6681)"/>
<path d="M29.5208 4H11.8125C7.49778 4 4 7.49778 4 11.8125V29.5208C4 33.8356 7.49778 37.3333 11.8125 37.3333H29.5208C33.8356 37.3333 37.3333 33.8356 37.3333 29.5208V11.8125C37.3333 7.49778 33.8356 4 29.5208 4Z" fill="url(#paint1_radial_55_6681)"/>
<path d="M20.6678 7.646C17.1317 7.646 16.6878 7.66149 15.299 7.72464C13.9128 7.78818 12.9665 8.00758 12.1387 8.32959C11.2822 8.66214 10.5557 9.10706 9.83204 9.83102C9.10769 10.5548 8.66277 11.2813 8.32918 12.1374C8.00626 12.9655 7.7866 13.9121 7.72423 15.2977C7.66212 16.6866 7.64584 17.1306 7.64584 20.667C7.64584 24.2033 7.66147 24.6457 7.72449 26.0345C7.78829 27.4207 8.00769 28.367 8.32944 29.1948C8.66225 30.0513 9.10717 30.7778 9.83113 31.5015C10.5547 32.2258 11.2811 32.6718 12.137 33.0043C12.9655 33.3263 13.9119 33.5457 15.2978 33.6093C16.6867 33.6724 17.1302 33.6879 20.6663 33.6879C24.2029 33.6879 24.6453 33.6724 26.0341 33.6093C27.4203 33.5457 28.3676 33.3263 29.1961 33.0043C30.0522 32.6718 30.7776 32.2258 31.501 31.5015C32.2254 30.7778 32.6702 30.0513 33.0039 29.1952C33.324 28.367 33.5438 27.4205 33.6089 26.0348C33.6712 24.646 33.6875 24.2033 33.6875 20.667C33.6875 17.1306 33.6712 16.6869 33.6089 15.2979C33.5438 13.9118 33.324 12.9657 33.0039 12.1378C32.6702 11.2813 32.2254 10.5548 31.501 9.83102C30.7768 9.1068 30.0525 8.66188 29.1953 8.32972C28.3652 8.00758 27.4185 7.78805 26.0323 7.72464C24.6434 7.66149 24.2012 7.646 20.6638 7.646H20.6678ZM19.4997 9.99248C19.8465 9.99196 20.2333 9.99248 20.6678 9.99248C24.1445 9.99248 24.5565 10.005 25.9294 10.0674C27.199 10.1254 27.888 10.3375 28.347 10.5158C28.9547 10.7517 29.3879 11.0339 29.8434 11.4897C30.2991 11.9455 30.5811 12.3795 30.8177 12.9871C30.996 13.4455 31.2083 14.1345 31.2662 15.4041C31.3285 16.7767 31.3421 17.189 31.3421 20.664C31.3421 24.139 31.3285 24.5513 31.2662 25.9239C31.2081 27.1934 30.996 27.8825 30.8177 28.3409C30.5818 28.9486 30.2991 29.3813 29.8434 29.8368C29.3876 30.2925 28.955 30.5745 28.347 30.8106C27.8886 30.9896 27.199 31.2012 25.9294 31.2593C24.5568 31.3216 24.1445 31.3352 20.6678 31.3352C17.191 31.3352 16.7789 31.3216 15.4064 31.2593C14.1369 31.2007 13.4478 30.9886 12.9884 30.8103C12.3809 30.5742 11.9468 30.2922 11.491 29.8365C11.0353 29.3808 10.7533 28.9478 10.5167 28.3399C10.3384 27.8814 10.1261 27.1923 10.0682 25.9228C10.0059 24.5502 9.99337 24.1379 9.99337 20.6607C9.99337 17.1836 10.0059 16.7735 10.0682 15.4008C10.1263 14.1313 10.3384 13.4422 10.5167 12.9832C10.7527 12.3756 11.0353 11.9416 11.4912 11.4858C11.9469 11.0301 12.3809 10.7479 12.9886 10.5115C13.4475 10.3325 14.1369 10.1209 15.4064 10.0625C16.6076 10.0082 17.0731 9.99196 19.4997 9.98922V9.99248ZM27.6184 12.1545C26.7557 12.1545 26.0559 12.8537 26.0559 13.7164C26.0559 14.5791 26.7557 15.2789 27.6184 15.2789C28.481 15.2789 29.1809 14.5791 29.1809 13.7164C29.1809 12.8538 28.481 12.1539 27.6184 12.1539V12.1545ZM20.6678 13.9801C16.9751 13.9801 13.9811 16.9741 13.9811 20.667C13.9811 24.3598 16.9751 27.3524 20.6678 27.3524C24.3607 27.3524 27.3537 24.3598 27.3537 20.667C27.3537 16.9743 24.3604 13.9801 20.6676 13.9801H20.6678ZM20.6678 16.3266C23.0649 16.3266 25.0082 18.2697 25.0082 20.667C25.0082 23.064 23.0649 25.0073 20.6678 25.0073C18.2707 25.0073 16.3276 23.064 16.3276 20.667C16.3276 18.2697 18.2707 16.3266 20.6678 16.3266Z" fill="white"/>
<defs>
<radialGradient id="paint0_radial_55_6681" cx="0" cy="0" r="1" gradientUnits="userSpaceOnUse" gradientTransform="translate(12.8542 39.9006) rotate(-90) scale(33.0358 30.7259)">
<stop stop-color="#FFDD55"/>
<stop offset="0.1" stop-color="#FFDD55"/>
<stop offset="0.5" stop-color="#FF543E"/>
<stop offset="1" stop-color="#C837AB"/>
</radialGradient>
<radialGradient id="paint1_radial_55_6681" cx="0" cy="0" r="1" gradientUnits="userSpaceOnUse" gradientTransform="translate(-1.58346 6.40117) rotate(78.681) scale(14.7672 60.8708)">
<stop stop-color="#3771C8"/>
<stop offset="0.128" stop-color="#3771C8"/>
<stop offset="1" stop-color="#6600FF" stop-opacity="0"/>
</radialGradient>
</defs>
</svg>
