<svg width="167" height="31" viewBox="0 0 167 31" fill="none" xmlns="http://www.w3.org/2000/svg">
<path fill-rule="evenodd" clip-rule="evenodd" d="M29.1389 20.9425C30.0963 20.7339 30.6566 20.3423 30.9123 19.8529C31.1681 19.3636 31.1699 18.68 30.7946 17.7749C30.4209 16.8736 29.7031 15.8331 28.668 14.7207C26.6015 12.4998 23.3608 10.088 19.4311 8.03405C15.5014 5.98007 11.6712 4.69598 8.66806 4.26709C7.16377 4.05226 5.89978 4.05683 4.94644 4.26454C3.98903 4.47313 3.4288 4.86477 3.17302 5.35412C2.91725 5.84347 2.9155 6.52703 3.29077 7.43218C3.66445 8.3335 4.38225 9.37391 5.41736 10.4864C7.48382 12.7072 10.7246 15.119 14.6543 17.173C18.584 19.227 22.4142 20.5111 25.4173 20.94C26.9216 21.1548 28.1856 21.1502 29.1389 20.9425ZM14.385 17.6883C22.3296 21.8408 29.9598 22.9305 31.4276 20.1223C32.8955 17.314 27.645 11.6712 19.7004 7.51874C11.7558 3.36626 4.12554 2.27653 2.65772 5.08478C1.1899 7.89303 6.44037 13.5358 14.385 17.6883Z" fill="#9D9998"/>
<path d="M16.7336 17.6639C16.7336 19.2042 15.485 20.4529 13.9447 20.4529C12.4044 20.4529 11.1558 19.2042 11.1558 17.6639C11.1558 16.1236 12.4044 14.875 13.9447 14.875C15.485 14.875 16.7336 16.1236 16.7336 17.6639Z" fill="#9D9998"/>
<path d="M13.9445 16.7334C13.9445 17.2468 13.5283 17.663 13.0148 17.663C12.5014 17.663 12.0852 17.2468 12.0852 16.7334C12.0852 16.2199 12.5014 15.8037 13.0148 15.8037C13.5283 15.8037 13.9445 16.2199 13.9445 16.7334Z" fill="white"/>
<path fill-rule="evenodd" clip-rule="evenodd" d="M4.62738 19.9245C4.22848 20.7819 4.17948 21.4959 4.40737 22.0666C4.63527 22.6373 5.1626 23.1211 6.04232 23.4679C6.92349 23.8152 8.10599 24.0015 9.52686 24.0002C12.365 23.9978 16.0305 23.2474 19.8354 21.7281C23.6402 20.2087 26.8144 18.2278 28.8736 16.2747C29.9045 15.2969 30.6334 14.3473 31.033 13.4885C31.4319 12.6312 31.4809 11.9172 31.253 11.3465C31.0251 10.7758 30.4977 10.2919 29.618 9.94519C28.7369 9.59787 27.5544 9.41157 26.1335 9.41281C23.2953 9.4153 19.6298 10.1656 15.825 11.685C12.0201 13.2044 8.84598 15.1852 6.78676 17.1384C5.75586 18.1162 5.02694 19.0658 4.62738 19.9245ZM15.6093 11.145C7.89791 14.2244 2.64086 19.2107 3.86739 22.2822C5.09392 25.3537 12.3396 25.3474 20.051 22.268C27.7624 19.1887 33.0195 14.2024 31.793 11.1309C30.5664 8.05934 23.3208 8.06567 15.6093 11.145Z" fill="#68C457"/>
<path d="M160.09 28.8036L161.079 23.8584H161.748L160.759 28.8036H160.09ZM157.943 25.5916C158.495 25.5916 158.91 25.7015 159.186 25.9213C159.469 26.141 159.61 26.4739 159.61 26.9197C159.61 27.3028 159.513 27.6356 159.318 27.9182C159.13 28.2008 158.863 28.4205 158.517 28.5775C158.172 28.7282 157.767 28.8036 157.302 28.8036H155.268L156.257 23.8678H156.926L156.586 25.5916H157.943ZM157.302 28.295C157.629 28.295 157.915 28.2416 158.159 28.1348C158.404 28.0218 158.596 27.8679 158.734 27.6733C158.872 27.4723 158.941 27.24 158.941 26.9762C158.941 26.3859 158.543 26.0908 157.745 26.0908H156.483L156.04 28.295H157.302Z" fill="#787878"/>
<path d="M147.835 28.8036L148.824 23.8584H149.493L150.972 27.6544H150.689L153.732 23.8584H154.363L153.374 28.8036H152.761L153.6 24.6214L153.713 24.6779L150.878 28.2008H150.576L149.154 24.6402L149.286 24.612L148.447 28.8036H147.835Z" fill="#787878"/>
<path d="M144.302 28.8499C143.831 28.8499 143.42 28.7652 143.068 28.5956C142.723 28.4198 142.456 28.1749 142.268 27.8609C142.086 27.5469 141.995 27.1733 141.995 26.74C141.995 26.1748 142.114 25.6725 142.353 25.2329C142.591 24.7933 142.918 24.4479 143.332 24.1967C143.747 23.9393 144.214 23.8105 144.736 23.8105C145.175 23.8105 145.555 23.8953 145.875 24.0649C146.196 24.2281 146.444 24.4668 146.62 24.7807C146.802 25.0947 146.893 25.4715 146.893 25.9111C146.893 26.0116 146.886 26.1152 146.874 26.2219C146.861 26.3224 146.846 26.4197 146.827 26.5139H142.484L142.569 26.0147H146.516L146.243 26.2031C146.306 25.8075 146.277 25.4746 146.158 25.2046C146.039 24.9346 145.853 24.7305 145.602 24.5924C145.357 24.4479 145.062 24.3757 144.717 24.3757C144.315 24.3757 143.957 24.4762 143.643 24.6771C143.329 24.8718 143.084 25.145 142.908 25.4966C142.732 25.842 142.645 26.247 142.645 26.7117C142.645 27.2078 142.786 27.5909 143.068 27.8609C143.357 28.1246 143.787 28.2565 144.359 28.2565C144.692 28.2565 144.999 28.2031 145.282 28.0964C145.565 27.9834 145.797 27.8295 145.979 27.6348L146.28 28.1152C146.048 28.3476 145.756 28.5297 145.404 28.6616C145.059 28.7871 144.692 28.8499 144.302 28.8499Z" fill="#787878"/>
<path d="M138.686 28.8036L139.59 24.2634L139.722 24.4424H137.688L137.801 23.8584H142.228L142.105 24.4424H140.052L140.259 24.2634L139.355 28.8036H138.686Z" fill="#787878"/>
<path d="M134.717 28.8499C134.246 28.8499 133.838 28.7652 133.492 28.5956C133.153 28.4198 132.889 28.1749 132.701 27.8609C132.519 27.5469 132.428 27.1764 132.428 26.7494C132.428 26.1842 132.55 25.6819 132.795 25.2423C133.04 24.7964 133.379 24.4479 133.812 24.1967C134.252 23.9393 134.751 23.8105 135.31 23.8105C135.768 23.8105 136.161 23.8953 136.488 24.0649C136.82 24.2281 137.078 24.473 137.26 24.7996L136.695 25.1293C136.557 24.8781 136.365 24.6928 136.12 24.5735C135.882 24.4542 135.593 24.3946 135.254 24.3946C134.839 24.3946 134.469 24.495 134.142 24.696C133.816 24.8969 133.558 25.1732 133.37 25.5249C133.188 25.8703 133.097 26.269 133.097 26.7212C133.097 27.2047 133.238 27.5815 133.52 27.8515C133.809 28.1215 134.217 28.2565 134.745 28.2565C135.065 28.2565 135.36 28.1969 135.63 28.0776C135.907 27.952 136.133 27.773 136.309 27.5406L136.789 27.908C136.575 28.2031 136.283 28.4355 135.913 28.605C135.542 28.7683 135.144 28.8499 134.717 28.8499Z" fill="#787878"/>
<path d="M125.924 28.8036L126.922 23.8584H127.591L126.791 27.8522L130.86 23.8584H131.5L130.511 28.8036H129.824L130.643 24.8003L126.574 28.8036H125.924Z" fill="#787878"/>
<path d="M122.804 28.8499C122.333 28.8499 121.925 28.7652 121.58 28.5956C121.241 28.4198 120.977 28.1749 120.789 27.8609C120.607 27.5469 120.516 27.1764 120.516 26.7494C120.516 26.1842 120.638 25.6819 120.883 25.2423C121.128 24.7964 121.467 24.4479 121.9 24.1967C122.34 23.9393 122.839 23.8105 123.398 23.8105C123.856 23.8105 124.249 23.8953 124.575 24.0649C124.908 24.2281 125.166 24.473 125.348 24.7996L124.783 25.1293C124.644 24.8781 124.453 24.6928 124.208 24.5735C123.969 24.4542 123.68 24.3946 123.341 24.3946C122.927 24.3946 122.556 24.495 122.23 24.696C121.903 24.8969 121.646 25.1732 121.457 25.5249C121.275 25.8703 121.184 26.269 121.184 26.7212C121.184 27.2047 121.326 27.5815 121.608 27.8515C121.897 28.1215 122.305 28.2565 122.833 28.2565C123.153 28.2565 123.448 28.1969 123.718 28.0776C123.994 27.952 124.22 27.773 124.396 27.5406L124.877 27.908C124.663 28.2031 124.371 28.4355 124.001 28.605C123.63 28.7683 123.231 28.8499 122.804 28.8499Z" fill="#787878"/>
<path d="M114.499 28.8499C114.028 28.8499 113.616 28.7652 113.265 28.5956C112.919 28.4198 112.652 28.1749 112.464 27.8609C112.282 27.5469 112.191 27.1733 112.191 26.74C112.191 26.1748 112.31 25.6725 112.549 25.2329C112.787 24.7933 113.114 24.4479 113.528 24.1967C113.943 23.9393 114.411 23.8105 114.932 23.8105C115.372 23.8105 115.751 23.8953 116.072 24.0649C116.392 24.2281 116.64 24.4668 116.816 24.7807C116.998 25.0947 117.089 25.4715 117.089 25.9111C117.089 26.0116 117.083 26.1152 117.07 26.2219C117.058 26.3224 117.042 26.4197 117.023 26.5139H112.681L112.766 26.0147H116.712L116.439 26.2031C116.502 25.8075 116.474 25.4746 116.354 25.2046C116.235 24.9346 116.05 24.7305 115.799 24.5924C115.554 24.4479 115.259 24.3757 114.913 24.3757C114.511 24.3757 114.153 24.4762 113.839 24.6771C113.525 24.8718 113.28 25.145 113.105 25.4966C112.929 25.842 112.841 26.247 112.841 26.7117C112.841 27.2078 112.982 27.5909 113.265 27.8609C113.554 28.1246 113.984 28.2565 114.555 28.2565C114.888 28.2565 115.196 28.2031 115.478 28.0964C115.761 27.9834 115.993 27.8295 116.175 27.6348L116.477 28.1152C116.244 28.3476 115.952 28.5297 115.601 28.6616C115.255 28.7871 114.888 28.8499 114.499 28.8499Z" fill="#787878"/>
<path d="M105.678 28.8036L106.676 23.8584H107.345L106.544 27.8522L110.613 23.8584H111.254L110.265 28.8036H109.577L110.397 24.8003L106.328 28.8036H105.678Z" fill="#787878"/>
<path d="M100.136 28.2196L99.9478 28.3986L100.852 23.8584H101.521L100.617 28.3986L100.475 28.2196H103.235L103.028 28.3986L103.932 23.8584H104.592L103.603 28.8036H96.764L97.7531 23.8584H98.4219L97.527 28.3986L97.3951 28.2196H100.136ZM103.508 29.8868L103.763 28.6246L103.895 28.8036H102.896L103.019 28.2196H104.479L104.139 29.8868H103.508Z" fill="#787878"/>
<path d="M91.2762 30.6781C91.0438 30.6781 90.8209 30.6373 90.6074 30.5556C90.3939 30.4803 90.2243 30.3735 90.0988 30.2354L90.4567 29.7455C90.5634 29.8586 90.689 29.9465 90.8335 30.0093C90.9779 30.0721 91.1412 30.1035 91.3233 30.1035C91.5368 30.1035 91.7315 30.0438 91.9073 29.9245C92.0894 29.8115 92.2778 29.6043 92.4724 29.3028L92.9717 28.5399L93.0565 28.4457L95.9953 23.8584H96.6829L93.0659 29.4441C92.8586 29.7581 92.664 30.003 92.4819 30.1788C92.2998 30.3609 92.1114 30.4897 91.9167 30.565C91.7283 30.6404 91.5148 30.6781 91.2762 30.6781ZM92.8586 28.9449L91.587 23.8584H92.2652L93.3767 28.3986L92.8586 28.9449Z" fill="#787878"/>
<path d="M88.4658 28.8499C87.9948 28.8499 87.5867 28.7652 87.2413 28.5956C86.9022 28.4198 86.6384 28.1749 86.45 27.8609C86.2679 27.5469 86.1769 27.1764 86.1769 26.7494C86.1769 26.1842 86.2993 25.6819 86.5442 25.2423C86.7891 24.7964 87.1282 24.4479 87.5615 24.1967C88.0011 23.9393 88.5003 23.8105 89.0592 23.8105C89.5176 23.8105 89.9101 23.8953 90.2367 24.0649C90.5695 24.2281 90.8269 24.473 91.009 24.7996L90.4439 25.1293C90.3057 24.8781 90.1142 24.6928 89.8693 24.5735C89.6307 24.4542 89.3418 24.3946 89.0027 24.3946C88.5883 24.3946 88.2178 24.495 87.8912 24.696C87.5647 24.8969 87.3072 25.1732 87.1188 25.5249C86.9367 25.8703 86.8457 26.269 86.8457 26.7212C86.8457 27.2047 86.987 27.5815 87.2695 27.8515C87.5584 28.1215 87.9666 28.2565 88.4941 28.2565C88.8143 28.2565 89.1095 28.1969 89.3795 28.0776C89.6558 27.952 89.8819 27.773 90.0577 27.5406L90.5381 27.908C90.3246 28.2031 90.0326 28.4355 89.6621 28.605C89.2916 28.7683 88.8928 28.8499 88.4658 28.8499Z" fill="#787878"/>
<path d="M82.6253 28.8499C82.1543 28.8499 81.743 28.7652 81.3913 28.5956C81.0459 28.4198 80.7791 28.1749 80.5907 27.8609C80.4086 27.5469 80.3175 27.1733 80.3175 26.74C80.3175 26.1748 80.4368 25.6725 80.6754 25.2329C80.9141 24.7933 81.2406 24.4479 81.6551 24.1967C82.0695 23.9393 82.5373 23.8105 83.0586 23.8105C83.4981 23.8105 83.878 23.8953 84.1983 24.0649C84.5186 24.2281 84.7666 24.4668 84.9424 24.7807C85.1246 25.0947 85.2156 25.4715 85.2156 25.9111C85.2156 26.0116 85.2093 26.1152 85.1968 26.2219C85.1842 26.3224 85.1685 26.4197 85.1497 26.5139H80.8073L80.8921 26.0147H84.8388L84.5657 26.2031C84.6285 25.8075 84.6002 25.4746 84.4809 25.2046C84.3616 24.9346 84.1763 24.7305 83.9251 24.5924C83.6802 24.4479 83.3851 24.3757 83.0397 24.3757C82.6378 24.3757 82.2799 24.4762 81.9659 24.6771C81.6519 24.8718 81.407 25.145 81.2312 25.4966C81.0554 25.842 80.9674 26.247 80.9674 26.7117C80.9674 27.2078 81.1087 27.5909 81.3913 27.8609C81.6802 28.1246 82.1103 28.2565 82.6818 28.2565C83.0146 28.2565 83.3223 28.2031 83.6049 28.0964C83.8875 27.9834 84.1198 27.8295 84.3019 27.6348L84.6033 28.1152C84.371 28.3476 84.079 28.5297 83.7273 28.6616C83.382 28.7871 83.0146 28.8499 82.6253 28.8499Z" fill="#787878"/>
<path d="M73.9423 28.8036L74.9313 23.8584H75.6001L75.1668 26.0437H78.2752L78.7179 23.8584H79.3867L78.3976 28.8036H77.7289L78.1622 26.6183H75.0538L74.611 28.8036H73.9423Z" fill="#787878"/>
<path d="M70.4096 28.8499C69.9386 28.8499 69.5273 28.7652 69.1756 28.5956C68.8302 28.4198 68.5634 28.1749 68.375 27.8609C68.1929 27.5469 68.1018 27.1733 68.1018 26.74C68.1018 26.1748 68.2211 25.6725 68.4597 25.2329C68.6984 24.7933 69.0249 24.4479 69.4394 24.1967C69.8538 23.9393 70.3216 23.8105 70.8429 23.8105C71.2824 23.8105 71.6623 23.8953 71.9826 24.0649C72.3029 24.2281 72.5509 24.4668 72.7267 24.7807C72.9089 25.0947 72.9999 25.4715 72.9999 25.9111C72.9999 26.0116 72.9936 26.1152 72.9811 26.2219C72.9685 26.3224 72.9528 26.4197 72.934 26.5139H68.5916L68.6764 26.0147H72.6231L72.35 26.2031C72.4128 25.8075 72.3845 25.4746 72.2652 25.2046C72.1459 24.9346 71.9606 24.7305 71.7094 24.5924C71.4645 24.4479 71.1694 24.3757 70.824 24.3757C70.4221 24.3757 70.0642 24.4762 69.7502 24.6771C69.4362 24.8718 69.1913 25.145 69.0155 25.4966C68.8397 25.842 68.7517 26.247 68.7517 26.7117C68.7517 27.2078 68.893 27.5909 69.1756 27.8609C69.4645 28.1246 69.8946 28.2565 70.4661 28.2565C70.7989 28.2565 71.1066 28.2031 71.3892 28.0964C71.6718 27.9834 71.9041 27.8295 72.0862 27.6348L72.3876 28.1152C72.1553 28.3476 71.8633 28.5297 71.5116 28.6616C71.1663 28.7871 70.7989 28.8499 70.4096 28.8499Z" fill="#787878"/>
<path d="M61.2269 28.7942L61.3871 28.2196C61.431 28.2259 61.4718 28.2353 61.5095 28.2479C61.5472 28.2541 61.5817 28.2573 61.6131 28.2573C61.8392 28.2573 62.037 28.1568 62.2065 27.9559C62.3824 27.7486 62.5394 27.4472 62.6775 27.0516C62.822 26.656 62.9664 26.1724 63.1108 25.601L63.5441 23.8584H67.1706L66.1721 28.8036H65.5033L66.417 24.2258L66.5583 24.4424H63.8644L64.0622 24.2258L63.7042 25.6669C63.5661 26.207 63.4279 26.6779 63.2898 27.0798C63.1579 27.4755 63.0135 27.8051 62.8565 28.0689C62.7058 28.3326 62.5362 28.5304 62.3478 28.6623C62.1657 28.7942 61.9554 28.8601 61.7167 28.8601C61.6351 28.8601 61.5566 28.8538 61.4813 28.8413C61.4059 28.8287 61.3211 28.813 61.2269 28.7942Z" fill="#787878"/>
<path d="M58.6903 28.8499C58.2194 28.8499 57.808 28.7652 57.4564 28.5956C57.111 28.4198 56.8441 28.1749 56.6557 27.8609C56.4736 27.5469 56.3826 27.1733 56.3826 26.74C56.3826 26.1748 56.5019 25.6725 56.7405 25.2329C56.9791 24.7933 57.3057 24.4479 57.7201 24.1967C58.1346 23.9393 58.6024 23.8105 59.1236 23.8105C59.5632 23.8105 59.9431 23.8953 60.2634 24.0649C60.5836 24.2281 60.8317 24.4668 61.0075 24.7807C61.1896 25.0947 61.2807 25.4715 61.2807 25.9111C61.2807 26.0116 61.2744 26.1152 61.2618 26.2219C61.2493 26.3224 61.2336 26.4197 61.2147 26.5139H56.8724L56.9572 26.0147H60.9039L60.6307 26.2031C60.6935 25.8075 60.6653 25.4746 60.546 25.2046C60.4266 24.9346 60.2414 24.7305 59.9902 24.5924C59.7453 24.4479 59.4502 24.3757 59.1048 24.3757C58.7029 24.3757 58.3449 24.4762 58.031 24.6771C57.717 24.8718 57.4721 25.145 57.2963 25.4966C57.1204 25.842 57.0325 26.247 57.0325 26.7117C57.0325 27.2078 57.1738 27.5909 57.4564 27.8609C57.7452 28.1246 58.1754 28.2565 58.7468 28.2565C59.0797 28.2565 59.3874 28.2031 59.6699 28.0964C59.9525 27.9834 60.1849 27.8295 60.367 27.6348L60.6684 28.1152C60.4361 28.3476 60.1441 28.5297 59.7924 28.6616C59.447 28.7871 59.0797 28.8499 58.6903 28.8499Z" fill="#787878"/>
<path d="M52.539 28.8602C51.8357 28.8602 51.2863 28.6529 50.8906 28.2385C50.495 27.824 50.2972 27.2243 50.2972 26.4394C50.2972 25.9182 50.3757 25.4221 50.5327 24.9511C50.6897 24.4801 50.9126 24.05 51.2015 23.6606C51.4903 23.2713 51.8357 22.9448 52.2376 22.681C52.6395 22.4173 53.0822 22.2352 53.5658 22.1347L55.8641 21.6543L55.8829 22.2289L53.7165 22.681C53.2141 22.7878 52.7682 22.9887 52.3789 23.2839C51.9958 23.579 51.6819 23.9495 51.437 24.3954C51.1983 24.8412 51.0413 25.3436 50.966 25.9025L50.7682 25.78C51.057 25.24 51.4307 24.8286 51.8891 24.5461C52.3475 24.2635 52.8593 24.1222 53.4245 24.1222C54.0524 24.1222 54.5422 24.2949 54.8939 24.6403C55.2518 24.9794 55.4308 25.4566 55.4308 26.072C55.4308 26.6058 55.3052 27.083 55.054 27.5038C54.8091 27.9245 54.4669 28.2573 54.0273 28.5022C53.594 28.7408 53.0979 28.8602 52.539 28.8602ZM52.5861 28.3327C52.988 28.3327 53.3491 28.2385 53.6694 28.0501C53.9959 27.8554 54.2502 27.598 54.4323 27.2777C54.6207 26.9512 54.7149 26.5838 54.7149 26.1756C54.7149 25.7109 54.5831 25.353 54.3193 25.1018C54.0556 24.8443 53.6882 24.7156 53.2172 24.7156C52.9221 24.7156 52.6395 24.769 52.3695 24.8757C52.0995 24.9825 51.8577 25.1269 51.6442 25.309C51.4307 25.4911 51.2611 25.7015 51.1355 25.9401C51.0162 26.1788 50.9566 26.4331 50.9566 26.7031C50.9566 27.1929 51.101 27.5885 51.3899 27.89C51.685 28.1851 52.0838 28.3327 52.5861 28.3327Z" fill="#787878"/>
<path d="M45.7811 28.8499C45.3603 28.8499 44.9867 28.7652 44.6602 28.5956C44.3336 28.4261 44.0793 28.1843 43.8972 27.8703C43.7151 27.5563 43.624 27.1827 43.624 26.7494C43.624 26.3287 43.6931 25.9393 43.8312 25.5814C43.9694 25.2235 44.1641 24.9126 44.4153 24.6489C44.6664 24.3789 44.9616 24.1716 45.3007 24.0272C45.6461 23.8828 46.0197 23.8105 46.4216 23.8105C46.8549 23.8105 47.2222 23.889 47.5237 24.046C47.8251 24.1967 48.0574 24.4197 48.2207 24.7148C48.384 25.0037 48.4656 25.3553 48.4656 25.7698C48.4656 26.3664 48.3557 26.897 48.1359 27.3617C47.9161 27.8264 47.6053 28.1906 47.2034 28.4543C46.8015 28.7181 46.3274 28.8499 45.7811 28.8499ZM45.9224 28.2565C46.3368 28.2565 46.7042 28.1592 47.0244 27.9645C47.351 27.7636 47.6053 27.4873 47.7874 27.1356C47.9758 26.7839 48.07 26.3852 48.07 25.9393C48.07 25.4495 47.9256 25.0696 47.6367 24.7996C47.3541 24.5296 46.9554 24.3946 46.4404 24.3946C46.0323 24.3946 45.6649 24.495 45.3384 24.696C45.0118 24.8969 44.7544 25.1732 44.566 25.5249C44.3839 25.8703 44.2928 26.269 44.2928 26.7212C44.2928 27.2047 44.4341 27.5815 44.7167 27.8515C45.0055 28.1215 45.4074 28.2565 45.9224 28.2565ZM47.5519 28.8028L47.8345 27.3805L48.1171 26.3821L48.2113 25.3459L48.5127 23.8576H49.1815L48.1924 28.8028H47.5519Z" fill="#787878"/>
<path d="M41.9516 28.8036L40.435 26.3451L40.9908 26.0908L42.7145 28.8036H41.9516ZM38.3157 28.8036L39.3141 23.8584H39.9829L38.9844 28.8036H38.3157ZM39.2294 26.5995L39.333 26.0249H40.9249L40.8212 26.5995H39.2294ZM41.0096 26.4016L40.3597 26.3075L42.837 23.8584H43.5906L41.0096 26.4016Z" fill="#787878"/>
<path d="M160.98 19.2051C159.777 19.2051 158.749 18.9915 157.895 18.5643C157.04 18.1371 156.383 17.547 155.922 16.7938C155.472 16.0294 155.247 15.1526 155.247 14.1633C155.247 13.1629 155.416 12.2355 155.753 11.3811C156.102 10.5155 156.596 9.76237 157.237 9.12161C157.878 8.48086 158.642 7.98062 159.53 7.6209C160.418 7.24993 161.413 7.06445 162.515 7.06445C163.538 7.06445 164.437 7.23307 165.213 7.57031C165.988 7.90755 166.584 8.39655 167 9.0373L165.415 10.3694C165.089 9.91974 164.673 9.57688 164.167 9.34082C163.661 9.10475 163.06 8.98672 162.363 8.98672C161.61 8.98672 160.93 9.11599 160.323 9.37454C159.716 9.63309 159.199 9.99843 158.771 10.4706C158.344 10.9315 158.018 11.471 157.793 12.0893C157.569 12.6963 157.456 13.3427 157.456 14.0284C157.456 14.6692 157.597 15.2369 157.878 15.7315C158.159 16.2261 158.575 16.6083 159.125 16.8781C159.676 17.1479 160.351 17.2828 161.149 17.2828C161.812 17.2828 162.425 17.1704 162.987 16.9456C163.56 16.7207 164.066 16.3779 164.504 15.917L165.786 17.2997C165.213 17.9517 164.51 18.435 163.678 18.7498C162.858 19.0533 161.958 19.2051 160.98 19.2051Z" fill="#787878"/>
<path d="M143.203 19.0358L145.564 7.23242H147.756L145.396 19.0358H143.203ZM145.75 14.0447L146.104 12.173H150.066L149.729 14.0447H145.75ZM151.162 19.0358L148.313 13.269L150.134 12.2573L153.506 19.0358H151.162ZM150.167 13.3533L148.077 13.1004L153.287 7.23242H155.749L150.167 13.3533Z" fill="#787878"/>
<path d="M131.501 19.0355L133.018 11.3128L133.406 11.8186H129.781L130.135 10.0312H138.583L138.212 11.8186H134.536L135.126 11.3128L133.608 19.0355H131.501Z" fill="#787878"/>
<path d="M117.773 19.0355L119.578 10.0312H121.702L120.471 16.1353L126.592 10.0312H128.599L126.795 19.0355H124.653L125.918 12.9146L119.797 19.0355H117.773Z" fill="#787878"/>
<path d="M111.148 19.2041C109.811 19.2041 108.765 18.8332 108.012 18.0913C107.27 17.3381 106.899 16.2196 106.899 14.7357C106.899 13.7915 107.04 12.8978 107.321 12.0547C107.613 11.2116 108.023 10.4472 108.552 9.76145C109.091 9.07573 109.732 8.50243 110.474 8.04153C111.216 7.58064 112.042 7.26026 112.953 7.0804L117.32 6.2373L117.303 8.02467L113.425 8.74974C112.559 8.91836 111.812 9.22187 111.182 9.66028C110.564 10.0987 110.075 10.6664 109.715 11.3633C109.355 12.0603 109.114 12.8922 108.99 13.8589L108.451 13.3193C109.001 12.4875 109.653 11.8636 110.406 11.4476C111.16 11.0205 112.003 10.8069 112.936 10.8069C114.071 10.8069 114.965 11.116 115.617 11.7343C116.28 12.3413 116.612 13.1957 116.612 14.2973C116.612 15.2303 116.381 16.0678 115.92 16.8097C115.459 17.5517 114.813 18.1362 113.981 18.5634C113.161 18.9906 112.216 19.2041 111.148 19.2041ZM111.283 17.5854C111.868 17.5854 112.391 17.4561 112.851 17.1976C113.312 16.939 113.672 16.5849 113.931 16.1353C114.2 15.6856 114.335 15.1798 114.335 14.6177C114.335 13.9657 114.139 13.4598 113.745 13.1001C113.363 12.7404 112.835 12.5605 112.16 12.5605C111.733 12.5605 111.328 12.6336 110.946 12.7797C110.564 12.9259 110.221 13.1282 109.918 13.3868C109.625 13.6453 109.395 13.9488 109.226 14.2973C109.058 14.6458 108.973 15.0224 108.973 15.4271C108.973 16.0678 109.181 16.5905 109.597 16.9952C110.013 17.3887 110.575 17.5854 111.283 17.5854Z" fill="#787878"/>
<path d="M102.129 12.9821C103.163 12.9821 103.945 13.1957 104.473 13.6228C105.001 14.0388 105.265 14.6627 105.265 15.4945C105.265 16.214 105.086 16.8379 104.726 17.3662C104.366 17.8945 103.855 18.3048 103.191 18.5971C102.539 18.8894 101.764 19.0355 100.865 19.0355H96.5479L98.3521 10.0312H100.443L99.8697 12.9821H102.129ZM100.865 17.5011C101.325 17.5011 101.724 17.428 102.062 17.2819C102.399 17.1245 102.663 16.9109 102.854 16.6411C103.045 16.3601 103.141 16.0341 103.141 15.6631C103.141 14.8538 102.596 14.4491 101.505 14.4491H99.5661L98.976 17.5011H100.865Z" fill="#787878"/>
<path d="M84.1993 19.0187L84.6715 17.2482C84.7502 17.2594 84.8232 17.2706 84.8907 17.2819C84.9581 17.2931 85.02 17.2988 85.0762 17.2988C85.4808 17.2988 85.8181 17.1358 86.0879 16.8098C86.3577 16.4725 86.5937 16.0172 86.7961 15.4439C86.9984 14.8594 87.1895 14.2018 87.3694 13.4711L88.2125 10.0312H95.4968L93.6926 19.0355H91.5849L93.1362 11.2284L93.5409 11.8186H89.2411L89.7975 11.1947L89.2073 13.606C88.9825 14.5165 88.7521 15.3203 88.516 16.0172C88.2799 16.7142 88.0158 17.2988 87.7235 17.7709C87.4312 18.243 87.0996 18.6027 86.7286 18.8501C86.3577 19.0861 85.9193 19.2042 85.4134 19.2042C85.1998 19.2042 85.0031 19.1873 84.8232 19.1536C84.6321 19.1198 84.4242 19.0749 84.1993 19.0187Z" fill="#787878"/>
<path d="M71.1427 19.0358L78.8149 7.23242H80.9901L83.9241 19.0358H81.7489L79.2871 8.36217H80.1639L73.4866 19.0358H71.1427ZM74.1442 16.3042L75.0716 14.5842H81.4285L81.7152 16.3042H74.1442Z" fill="#787878"/>
<path d="M60.0591 19.0187L60.5312 17.2482C60.6099 17.2594 60.683 17.2706 60.7504 17.2819C60.8179 17.2931 60.8797 17.2988 60.9359 17.2988C61.3406 17.2988 61.6778 17.1358 61.9476 16.8098C62.2174 16.4725 62.4535 16.0172 62.6558 15.4439C62.8582 14.8594 63.0493 14.2018 63.2291 13.4711L64.0722 10.0312H71.3566L69.5524 19.0355H67.4446L68.9959 11.2284L69.4006 11.8186H65.1008L65.6573 11.1947L65.0671 13.606C64.8423 14.5165 64.6118 15.3203 64.3757 16.0172C64.1397 16.7142 63.8755 17.2988 63.5832 17.7709C63.291 18.243 62.9593 18.6027 62.5884 18.8501C62.2174 19.0861 61.779 19.2042 61.2731 19.2042C61.0596 19.2042 60.8628 19.1873 60.683 19.1536C60.4919 19.1198 60.2839 19.0749 60.0591 19.0187Z" fill="#787878"/>
<path d="M55.521 19.1532C54.6217 19.1532 53.8404 18.9902 53.1772 18.6642C52.5139 18.3269 51.9968 17.866 51.6259 17.2815C51.2662 16.6857 51.0863 15.9887 51.0863 15.1906C51.0863 14.1677 51.3111 13.2627 51.7608 12.4758C52.2104 11.689 52.8231 11.0707 53.5987 10.621C54.3856 10.1601 55.2793 9.92969 56.2798 9.92969C57.1229 9.92969 57.8536 10.0871 58.4718 10.4018C59.0901 10.7166 59.5679 11.1719 59.9051 11.7676C60.2536 12.3522 60.4278 13.0548 60.4278 13.8754C60.4278 14.089 60.4166 14.3082 60.3941 14.533C60.3716 14.7578 60.3379 14.9658 60.2929 15.1569H52.6545L52.8905 13.7573H59.2981L58.4381 14.2295C58.528 13.6562 58.4887 13.1784 58.3201 12.7962C58.1515 12.414 57.8817 12.1217 57.5107 11.9194C57.1397 11.7171 56.6957 11.6159 56.1786 11.6159C55.5603 11.6159 55.0208 11.762 54.5599 12.0543C54.1102 12.3353 53.7617 12.74 53.5144 13.2684C53.2671 13.7855 53.1435 14.3925 53.1435 15.0894C53.1435 15.8201 53.3514 16.3822 53.7674 16.7756C54.1945 17.1691 54.8521 17.3658 55.7402 17.3658C56.2461 17.3658 56.7294 17.2871 57.1903 17.1297C57.6512 16.9611 58.0334 16.7307 58.3369 16.4384L59.2138 17.9054C58.7416 18.3213 58.1796 18.6361 57.5276 18.8497C56.8868 19.052 56.218 19.1532 55.521 19.1532Z" fill="#787878"/>
<path d="M38.7385 19.0358L41.0992 7.23242H50.2889L49.918 9.03665H42.9034L42.3301 11.9369H45.8205C47.0346 11.9369 47.9564 12.2011 48.5859 12.7294C49.2266 13.2465 49.547 14.0053 49.547 15.0058C49.547 15.8489 49.3278 16.5683 48.8894 17.1641C48.451 17.7599 47.8215 18.2208 47.0009 18.5468C46.1802 18.8728 45.1966 19.0358 44.05 19.0358H38.7385ZM41.2509 17.3496H44.2861C45.2191 17.3496 45.9498 17.1585 46.4781 16.7763C47.0177 16.3828 47.2875 15.8489 47.2875 15.1744C47.2875 14.6348 47.102 14.2414 46.7311 13.9941C46.3713 13.7468 45.8037 13.6231 45.028 13.6231H41.9929L41.2509 17.3496Z" fill="#787878"/>
<path d="M21.3817 10.2255C21.3817 11.2524 20.5492 12.0848 19.5224 12.0848C18.4955 12.0848 17.6631 11.2524 17.6631 10.2255C17.6631 9.19864 18.4955 8.36621 19.5224 8.36621C20.5492 8.36621 21.3817 9.19864 21.3817 10.2255Z" fill="#68C457"/>
<path d="M19.5224 9.76072C19.5224 10.0174 19.3143 10.2255 19.0576 10.2255C18.8009 10.2255 18.5928 10.0174 18.5928 9.76072C18.5928 9.50401 18.8009 9.2959 19.0576 9.2959C19.3143 9.2959 19.5224 9.50401 19.5224 9.76072Z" fill="white"/>
</svg>
