<svg width="19" height="19" viewBox="0 0 19 19" fill="none" xmlns="http://www.w3.org/2000/svg">
<path d="M17.166 11.7501C17.166 13.6251 16.791 14.9376 15.951 15.7851L11.166 11.0001L16.9635 5.20264C17.0985 5.79514 17.166 6.47013 17.166 7.25013V11.7501Z" stroke="black" stroke-linecap="round" stroke-linejoin="round"/>
<path d="M5.36851 16.7975C3.11101 16.28 2.16602 14.72 2.16602 11.75V7.25C2.16602 3.5 3.66602 2 7.41602 2H11.916C14.886 2 16.446 2.945 16.9635 5.2025L5.36851 16.7975Z" stroke="black" stroke-linecap="round" stroke-linejoin="round"/>
<path d="M11.9157 17H7.41567C6.63567 17 5.96066 16.9325 5.36816 16.7975L11.1657 11L15.9507 15.785C15.1032 16.625 13.7907 17 11.9157 17Z" stroke="black" stroke-linecap="round" stroke-linejoin="round"/>
<path d="M9.66598 6.48504C9.95848 7.77504 9.14846 8.87004 8.43596 9.54504C7.91846 10.04 7.10098 10.04 6.57598 9.54504C5.86348 8.87004 5.04597 7.77504 5.34597 6.48504C5.85597 4.28754 9.15598 4.28754 9.66598 6.48504Z" stroke="black"/>
<path d="M7.48611 7.02539H7.49285" stroke="black" stroke-width="2" stroke-linecap="round" stroke-linejoin="round"/>
</svg>
