<svg width="16" height="16" viewBox="0 0 16 16" fill="none" xmlns="http://www.w3.org/2000/svg">
<path fill-rule="evenodd" clip-rule="evenodd" d="M5.17268 1.33301C3.33268 1.33301 2.66602 1.99967 2.66602 3.87301V12.1263C2.66602 13.9997 3.33268 14.6663 5.17268 14.6663H10.8193C12.666 14.6663 13.3327 13.9997 13.3327 12.1263V3.87301C13.3327 1.99967 12.666 1.33301 10.826 1.33301H5.17268ZM6.83268 11.6997C6.83268 11.0597 7.35935 10.533 7.99935 10.533C8.63935 10.533 9.16602 11.0597 9.16602 11.6997C9.16602 12.3397 8.63935 12.8663 7.99935 12.8663C7.35935 12.8663 6.83268 12.3397 6.83268 11.6997ZM6.66602 4.16634C6.39268 4.16634 6.16602 3.93967 6.16602 3.66634C6.16602 3.39301 6.39268 3.16634 6.66602 3.16634H9.33268C9.60602 3.16634 9.83268 3.39301 9.83268 3.66634C9.83268 3.93967 9.60602 4.16634 9.33268 4.16634H6.66602Z" fill="white"/>
</svg>
