<svg width="17" height="16" viewBox="0 0 17 16" fill="none" xmlns="http://www.w3.org/2000/svg">
<path fill-rule="evenodd" clip-rule="evenodd" d="M5.50667 1.33301C3.66667 1.33301 3 1.99967 3 3.87301V12.1263C3 13.9997 3.66667 14.6663 5.50667 14.6663H11.1533C13 14.6663 13.6667 13.9997 13.6667 12.1263V3.87301C13.6667 1.99967 13 1.33301 11.16 1.33301H5.50667ZM7.16667 11.6997C7.16667 11.0597 7.69333 10.533 8.33333 10.533C8.97333 10.533 9.5 11.0597 9.5 11.6997C9.5 12.3397 8.97333 12.8663 8.33333 12.8663C7.69333 12.8663 7.16667 12.3397 7.16667 11.6997ZM7 4.16634C6.72667 4.16634 6.5 3.93967 6.5 3.66634C6.5 3.39301 6.72667 3.16634 7 3.16634H9.66667C9.94 3.16634 10.1667 3.39301 10.1667 3.66634C10.1667 3.93967 9.94 4.16634 9.66667 4.16634H7Z" fill="#4E4E4E"/>
</svg>
