<svg width="16" height="16" viewBox="0 0 16 16" fill="none" xmlns="http://www.w3.org/2000/svg">
<path fill-rule="evenodd" clip-rule="evenodd" d="M4.66668 2.3335C2.66668 2.3335 1.33334 3.3335 1.33334 5.66683V10.3335C1.33334 12.6668 2.66668 13.6668 4.66668 13.6668H11.3333C13.3333 13.6668 14.6667 12.6668 14.6667 10.3335V5.66683C14.6667 3.3335 13.3333 2.3335 11.3333 2.3335H4.66668ZM9.56001 8.06016C9.12001 8.4135 8.56001 8.58683 8.00001 8.58683C7.44001 8.58683 6.87334 8.4135 6.44001 8.06016L4.35334 6.3935C4.14001 6.22016 4.10668 5.90016 4.27334 5.68683C4.44668 5.4735 4.76001 5.4335 4.97334 5.60683L7.06001 7.2735C7.56668 7.68016 8.42668 7.68016 8.93334 7.2735L11.02 5.60683C11.2333 5.4335 11.5533 5.46683 11.72 5.68683C11.8933 5.90016 11.86 6.22016 11.6467 6.3935L9.56001 8.06016Z" fill="#4E4E4E"/>
</svg>
