<svg width="40" height="40" viewBox="0 0 40 40" fill="none" xmlns="http://www.w3.org/2000/svg">
<path fill-rule="evenodd" clip-rule="evenodd" d="M27.7933 4.38008C22.5497 3.20794 17.1119 3.20794 11.8683 4.38008L11.3033 4.50508C9.82835 4.83484 8.47367 5.56705 7.38977 6.62035C6.30587 7.67365 5.53518 9.00682 5.16332 10.4717C3.83415 15.7093 3.83415 21.1959 5.16332 26.4334C5.51795 27.8305 6.23566 29.109 7.24371 30.1393C8.25176 31.1696 9.51429 31.915 10.9033 32.3001L11.6783 36.9267C11.7031 37.0737 11.7667 37.2113 11.8627 37.3252C11.9587 37.4392 12.0835 37.5253 12.224 37.5746C12.3646 37.624 12.5158 37.6348 12.662 37.6058C12.8081 37.5769 12.9438 37.5093 13.055 37.4101L17.6067 33.3384C21.0235 33.5469 24.4526 33.2737 27.7933 32.5267L28.36 32.4017C29.835 32.072 31.1896 31.3398 32.2735 30.2865C33.3574 29.2332 34.1281 27.9 34.5 26.4351C35.829 21.1975 35.829 15.711 34.5 10.4734C34.128 9.00827 33.3571 7.67496 32.2728 6.62164C31.1886 5.56832 29.8336 4.83624 28.3583 4.50674L27.7933 4.38008ZM13.275 10.3367C12.9652 10.2917 12.6494 10.354 12.38 10.5134H12.3567C11.7317 10.8801 11.1683 11.3417 10.6883 11.8851C10.2883 12.3467 10.0717 12.8134 10.015 13.2634C9.98165 13.5301 10.005 13.8001 10.0833 14.0551L10.1133 14.0717C10.5633 15.3934 11.15 16.6651 11.8667 17.8617C12.7907 19.5426 13.9279 21.0971 15.25 22.4867L15.29 22.5434L15.3533 22.5901L15.3917 22.6351L15.4383 22.6751C16.8329 24.0011 18.391 25.1437 20.075 26.0751C22 27.1234 23.1683 27.6184 23.87 27.8251V27.8351C24.075 27.8984 24.2617 27.9267 24.45 27.9267C25.0476 27.8826 25.6132 27.6397 26.0567 27.2367C26.5983 26.7567 27.0567 26.1917 27.4133 25.5634V25.5517C27.7483 24.9184 27.635 24.3217 27.1517 23.9167C26.1808 23.0685 25.131 22.315 24.0167 21.6667C23.27 21.2617 22.5117 21.5067 22.205 21.9167L21.55 22.7434C21.2133 23.1534 20.6033 23.0967 20.6033 23.0967L20.5867 23.1067C16.035 21.9451 14.82 17.3367 14.82 17.3367C14.82 17.3367 14.7633 16.7101 15.185 16.3901L16.005 15.7301C16.3983 15.4101 16.6717 14.6534 16.25 13.9067C15.606 12.7913 14.8541 11.7419 14.005 10.7734C13.8198 10.5455 13.5601 10.3903 13.2717 10.3351L13.275 10.3367ZM20.965 8.33341C20.744 8.33341 20.532 8.42121 20.3757 8.57749C20.2194 8.73377 20.1317 8.94573 20.1317 9.16674C20.1317 9.38776 20.2194 9.59972 20.3757 9.756C20.532 9.91228 20.744 10.0001 20.965 10.0001C23.0733 10.0001 24.8233 10.6884 26.2083 12.0084C26.92 12.7301 27.475 13.5851 27.8383 14.5217C28.2033 15.4601 28.37 16.4617 28.3267 17.4651C28.3221 17.5745 28.3391 17.6838 28.3767 17.7866C28.4143 17.8895 28.4718 17.9839 28.546 18.0646C28.6957 18.2274 28.904 18.3241 29.125 18.3334C29.346 18.3427 29.5616 18.2638 29.7245 18.1141C29.8873 17.9644 29.984 17.7561 29.9933 17.5351C30.045 16.3009 29.8401 15.0694 29.3917 13.9184C28.9412 12.762 28.2582 11.7103 27.385 10.8284L27.3683 10.8117C25.65 9.17007 23.475 8.33341 20.965 8.33341ZM20.9083 11.0734C20.6873 11.0734 20.4753 11.1612 20.3191 11.3175C20.1628 11.4738 20.075 11.6857 20.075 11.9067C20.075 12.1278 20.1628 12.3397 20.3191 12.496C20.4753 12.6523 20.6873 12.7401 20.9083 12.7401H20.9367C22.4567 12.8484 23.5633 13.3551 24.3383 14.1867C25.1333 15.0434 25.545 16.1084 25.5133 17.4251C25.5082 17.6461 25.5912 17.8601 25.7438 18.0199C25.8965 18.1798 26.1065 18.2725 26.3275 18.2776C26.5485 18.2827 26.7625 18.1997 26.9224 18.047C27.0822 17.8944 27.1749 17.6844 27.18 17.4634C27.22 15.7351 26.6633 14.2434 25.56 13.0534V13.0501C24.4317 11.8401 22.8833 11.2001 21.02 11.0751L20.9917 11.0717L20.9083 11.0734ZM20.8767 13.8651C20.7651 13.8552 20.6528 13.868 20.5463 13.9025C20.4398 13.9371 20.3413 13.9927 20.2568 14.0661C20.1723 14.1396 20.1035 14.2293 20.0544 14.3299C20.0053 14.4305 19.977 14.54 19.9712 14.6518C19.9654 14.7636 19.9821 14.8755 20.0205 14.9806C20.0588 15.0858 20.118 15.1822 20.1944 15.264C20.2708 15.3458 20.363 15.4114 20.4653 15.4568C20.5676 15.5023 20.678 15.5266 20.79 15.5284C21.4867 15.5651 21.9317 15.7751 22.2117 16.0567C22.4933 16.3401 22.7033 16.7951 22.7417 17.5067C22.7437 17.6186 22.7683 17.7288 22.8139 17.831C22.8595 17.9331 22.9252 18.025 23.0071 18.1012C23.0889 18.1774 23.1853 18.2364 23.2905 18.2746C23.3956 18.3127 23.5073 18.3293 23.619 18.3234C23.7307 18.3175 23.8401 18.2891 23.9406 18.24C24.0411 18.1909 24.1307 18.1221 24.204 18.0377C24.2774 17.9532 24.333 17.8549 24.3675 17.7485C24.402 17.6421 24.4148 17.5298 24.405 17.4184C24.3517 16.4184 24.0383 15.5351 23.3967 14.8851C22.7517 14.2351 21.8733 13.9184 20.8767 13.8651Z" fill="#762C94"/>
</svg>
