<svg width="40" height="40" viewBox="0 0 40 40" fill="none" xmlns="http://www.w3.org/2000/svg">
<path d="M3.16322 19.3845C3.16238 22.4092 3.95271 25.3626 5.4555 27.9658L3.0195 36.86L12.1216 34.4734C14.6392 35.8439 17.4599 36.562 20.3263 36.5623H20.3338C29.7964 36.5623 37.4991 28.8623 37.5032 19.3981C37.505 14.812 35.7206 10.4995 32.4787 7.25505C29.2373 4.01087 24.9263 2.22328 20.3331 2.22119C10.8695 2.22119 3.16727 9.92073 3.16336 19.3845" fill="url(#paint0_linear_55_6688)"/>
<path d="M15.8909 11.9462C15.558 11.2062 15.2076 11.1913 14.891 11.1783C14.6317 11.1671 14.3354 11.168 14.0393 11.168C13.7429 11.168 13.2614 11.2795 12.8543 11.7239C12.4469 12.1687 11.2988 13.2437 11.2988 15.4301C11.2988 17.6164 12.8913 19.7296 13.1133 20.0264C13.3356 20.3226 16.1877 24.9529 20.7047 26.7342C24.4588 28.2145 25.2227 27.9201 26.0375 27.8459C26.8523 27.7719 28.6668 26.7712 29.037 25.7335C29.4075 24.6959 29.4075 23.8065 29.2964 23.6206C29.1854 23.4355 28.889 23.3243 28.4446 23.1021C28.0001 22.88 25.8152 21.8047 25.4079 21.6564C25.0004 21.5082 24.7042 21.4343 24.4078 21.8792C24.1115 22.3235 23.2604 23.3243 23.001 23.6206C22.7419 23.9177 22.4825 23.9547 22.0382 23.7324C21.5935 23.5094 20.1623 23.0407 18.4643 21.5269C17.1432 20.349 16.2513 18.8943 15.9921 18.4493C15.7328 18.0051 15.9643 17.7642 16.1871 17.5428C16.3868 17.3437 16.6317 17.0238 16.8541 16.7644C17.0757 16.5049 17.1496 16.3198 17.2978 16.0234C17.4461 15.7267 17.3719 15.4672 17.261 15.2449C17.1496 15.0226 16.2861 12.8248 15.8909 11.9462Z" fill="white"/>
<defs>
<linearGradient id="paint0_linear_55_6688" x1="1727.2" y1="3466.11" x2="1727.2" y2="2.22119" gradientUnits="userSpaceOnUse">
<stop stop-color="#1FAF38"/>
<stop offset="1" stop-color="#60D669"/>
</linearGradient>
</defs>
</svg>
